<svg xmlns="http://www.w3.org/2000/svg" width="166" height="104" viewBox="0 0 166 104">
  <g id="Raggruppa_14" data-name="Raggruppa 14" transform="translate(-155 -935)" opacity="0.3">
    <circle id="Ellisse_1" data-name="Ellisse 1" cx="5.5" cy="5.5" r="5.5" transform="translate(155 935)" fill="#e9c3b6"/>
    <circle id="Ellisse_1-2" data-name="Ellisse 1" cx="5.5" cy="5.5" r="5.5" transform="translate(186 935)" fill="#e9c3b6"/>
    <circle id="Ellisse_1-3" data-name="Ellisse 1" cx="5.5" cy="5.5" r="5.5" transform="translate(217 935)" fill="#e9c3b6"/>
    <circle id="Ellisse_1-4" data-name="Ellisse 1" cx="5.5" cy="5.5" r="5.5" transform="translate(248 935)" fill="#e9c3b6"/>
    <circle id="Ellisse_1-5" data-name="Ellisse 1" cx="5.5" cy="5.5" r="5.5" transform="translate(279 935)" fill="#e9c3b6"/>
    <circle id="Ellisse_1-6" data-name="Ellisse 1" cx="5.5" cy="5.5" r="5.5" transform="translate(310 935)" fill="#e9c3b6"/>
    <circle id="Ellisse_1-7" data-name="Ellisse 1" cx="5.5" cy="5.5" r="5.5" transform="translate(155 966)" fill="#e9c3b6"/>
    <circle id="Ellisse_1-8" data-name="Ellisse 1" cx="5.5" cy="5.5" r="5.5" transform="translate(186 966)" fill="#e9c3b6"/>
    <circle id="Ellisse_1-9" data-name="Ellisse 1" cx="5.5" cy="5.5" r="5.5" transform="translate(217 966)" fill="#e9c3b6"/>
    <circle id="Ellisse_1-10" data-name="Ellisse 1" cx="5.5" cy="5.5" r="5.5" transform="translate(248 966)" fill="#e9c3b6"/>
    <circle id="Ellisse_1-11" data-name="Ellisse 1" cx="5.5" cy="5.5" r="5.5" transform="translate(279 966)" fill="#e9c3b6"/>
    <circle id="Ellisse_1-12" data-name="Ellisse 1" cx="5.5" cy="5.5" r="5.5" transform="translate(310 966)" fill="#e9c3b6"/>
    <circle id="Ellisse_1-13" data-name="Ellisse 1" cx="5.5" cy="5.5" r="5.5" transform="translate(155 997)" fill="#e9c3b6"/>
    <circle id="Ellisse_1-14" data-name="Ellisse 1" cx="5.5" cy="5.5" r="5.5" transform="translate(186 997)" fill="#e9c3b6"/>
    <circle id="Ellisse_1-15" data-name="Ellisse 1" cx="5.5" cy="5.5" r="5.5" transform="translate(217 997)" fill="#e9c3b6"/>
    <circle id="Ellisse_1-16" data-name="Ellisse 1" cx="5.5" cy="5.5" r="5.5" transform="translate(248 997)" fill="#e9c3b6"/>
    <circle id="Ellisse_1-17" data-name="Ellisse 1" cx="5.5" cy="5.5" r="5.5" transform="translate(279 997)" fill="#e9c3b6"/>
    <circle id="Ellisse_1-18" data-name="Ellisse 1" cx="5.5" cy="5.5" r="5.5" transform="translate(310 997)" fill="#e9c3b6"/>
    <circle id="Ellisse_1-19" data-name="Ellisse 1" cx="5.5" cy="5.5" r="5.5" transform="translate(155 1028)" fill="#e9c3b6"/>
    <circle id="Ellisse_1-20" data-name="Ellisse 1" cx="5.5" cy="5.5" r="5.5" transform="translate(186 1028)" fill="#e9c3b6"/>
    <circle id="Ellisse_1-21" data-name="Ellisse 1" cx="5.5" cy="5.5" r="5.5" transform="translate(217 1028)" fill="#e9c3b6"/>
    <circle id="Ellisse_1-22" data-name="Ellisse 1" cx="5.5" cy="5.5" r="5.5" transform="translate(248 1028)" fill="#e9c3b6"/>
    <circle id="Ellisse_1-23" data-name="Ellisse 1" cx="5.5" cy="5.5" r="5.5" transform="translate(279 1028)" fill="#e9c3b6"/>
    <circle id="Ellisse_1-24" data-name="Ellisse 1" cx="5.5" cy="5.5" r="5.5" transform="translate(310 1028)" fill="#e9c3b6"/>
  </g>
</svg>
